<mxfile host="Electron" agent="Mozilla/5.0 (X11; Linux x86_64) AppleWebKit/537.36 (KHTML, like Gecko) draw.io/22.1.2 Chrome/114.0.5735.289 Electron/25.9.4 Safari/537.36" modified="2025-04-16T20:52:24.234Z" etag="S2qEQkxVTSNnE1G7eVYU" version="22.1.2" type="device">
  <diagram name="Page-1" id="nSsIPZ6L2KpDagUP9jpU">
    <mxGraphModel dx="1304" dy="883" grid="1" gridSize="10" guides="1" tooltips="1" connect="1" arrows="1" fold="1" page="1" pageScale="1" pageWidth="827" pageHeight="1169" math="0" shadow="0">
      <root>
        <mxCell id="0" />
        <mxCell id="1" parent="0" />
        <mxCell id="QG4iqdVKZUwrRVSonUUm-2" value="I" style="ellipse;shape=doubleEllipse;whiteSpace=wrap;html=1;aspect=fixed;fontSize=16;" parent="1" vertex="1">
          <mxGeometry x="379" y="400" width="60" height="60" as="geometry" />
        </mxCell>
        <mxCell id="QG4iqdVKZUwrRVSonUUm-4" value="&lt;div&gt;&lt;font&gt;CI1&lt;/font&gt;&lt;/div&gt;" style="ellipse;whiteSpace=wrap;html=1;aspect=fixed;fontSize=16;" parent="1" vertex="1">
          <mxGeometry x="95" y="410" width="60" height="60" as="geometry" />
        </mxCell>
        <mxCell id="QG4iqdVKZUwrRVSonUUm-5" value="" style="endArrow=classic;html=1;fontColor=#FF3333;rounded=0;exitX=0.017;exitY=0.667;exitDx=0;exitDy=0;entryX=1;entryY=0.5;entryDx=0;entryDy=0;exitPerimeter=0;" parent="1" source="QG4iqdVKZUwrRVSonUUm-2" target="QG4iqdVKZUwrRVSonUUm-4" edge="1">
          <mxGeometry width="50" height="50" relative="1" as="geometry">
            <mxPoint x="164.0000000000132" y="550" as="sourcePoint" />
            <mxPoint x="84" y="530" as="targetPoint" />
          </mxGeometry>
        </mxCell>
        <mxCell id="QG4iqdVKZUwrRVSonUUm-6" value="? GET /car/:id" style="edgeLabel;html=1;align=center;verticalAlign=middle;resizable=0;points=[];fontSize=12;fontStyle=1" parent="QG4iqdVKZUwrRVSonUUm-5" vertex="1" connectable="0">
          <mxGeometry x="-0.0055" y="-3" relative="1" as="geometry">
            <mxPoint x="-58" y="13" as="offset" />
          </mxGeometry>
        </mxCell>
        <mxCell id="QG4iqdVKZUwrRVSonUUm-7" value="" style="endArrow=classic;html=1;fontColor=#FF3333;rounded=0;entryX=-0.004;entryY=0.57;entryDx=0;entryDy=0;curved=0;entryPerimeter=0;strokeWidth=1;startSize=6;endSize=2;exitX=0.991;exitY=0.408;exitDx=0;exitDy=0;exitPerimeter=0;" parent="1" source="QG4iqdVKZUwrRVSonUUm-4" target="QG4iqdVKZUwrRVSonUUm-2" edge="1">
          <mxGeometry width="50" height="50" relative="1" as="geometry">
            <mxPoint x="-40" y="430" as="sourcePoint" />
            <mxPoint x="132.73999999999978" y="500.3599999999999" as="targetPoint" />
            <Array as="points" />
          </mxGeometry>
        </mxCell>
        <mxCell id="QG4iqdVKZUwrRVSonUUm-8" value="[id invalid] Send(404 error)" style="edgeLabel;html=1;align=center;verticalAlign=middle;resizable=0;points=[];fontSize=10;" parent="QG4iqdVKZUwrRVSonUUm-7" vertex="1" connectable="0">
          <mxGeometry x="-0.2486" y="-25" relative="1" as="geometry">
            <mxPoint x="-22" y="-36" as="offset" />
          </mxGeometry>
        </mxCell>
        <mxCell id="QG4iqdVKZUwrRVSonUUm-10" value="CI2" style="ellipse;whiteSpace=wrap;html=1;aspect=fixed;fontSize=16;" parent="1" vertex="1">
          <mxGeometry x="95" y="525" width="60" height="60" as="geometry" />
        </mxCell>
        <mxCell id="QG4iqdVKZUwrRVSonUUm-11" value="" style="endArrow=classic;html=1;fontColor=#FF3333;rounded=0;exitX=0.5;exitY=1;exitDx=0;exitDy=0;entryX=0.5;entryY=0;entryDx=0;entryDy=0;" parent="1" source="QG4iqdVKZUwrRVSonUUm-4" edge="1">
          <mxGeometry width="50" height="50" relative="1" as="geometry">
            <mxPoint x="179.66" y="721.65" as="sourcePoint" />
            <mxPoint x="125.00000000000023" y="525" as="targetPoint" />
          </mxGeometry>
        </mxCell>
        <mxCell id="QG4iqdVKZUwrRVSonUUm-12" value="[id valid] &lt;br&gt;Read(card from DB)" style="edgeLabel;html=1;align=center;verticalAlign=middle;resizable=0;points=[];fontSize=10;" parent="QG4iqdVKZUwrRVSonUUm-11" vertex="1" connectable="0">
          <mxGeometry x="0.3147" y="-1" relative="1" as="geometry">
            <mxPoint x="-47" y="-7" as="offset" />
          </mxGeometry>
        </mxCell>
        <mxCell id="QG4iqdVKZUwrRVSonUUm-13" value="" style="endArrow=classic;html=1;fontColor=#FF3333;rounded=0;exitX=1;exitY=0.5;exitDx=0;exitDy=0;entryX=0.031;entryY=0.726;entryDx=0;entryDy=0;curved=0;entryPerimeter=0;endSize=2;" parent="1" source="QG4iqdVKZUwrRVSonUUm-10" target="QG4iqdVKZUwrRVSonUUm-2" edge="1">
          <mxGeometry width="50" height="50" relative="1" as="geometry">
            <mxPoint x="54" y="750" as="sourcePoint" />
            <mxPoint x="172.78679656442227" y="571.213203435578" as="targetPoint" />
            <Array as="points">
              <mxPoint x="155" y="470" />
              <mxPoint x="280" y="470" />
              <mxPoint x="280" y="444" />
            </Array>
          </mxGeometry>
        </mxCell>
        <mxCell id="QG4iqdVKZUwrRVSonUUm-14" value="Send(card)" style="edgeLabel;html=1;align=center;verticalAlign=middle;resizable=0;points=[];fontSize=10;" parent="QG4iqdVKZUwrRVSonUUm-13" vertex="1" connectable="0">
          <mxGeometry x="-0.2486" y="-25" relative="1" as="geometry">
            <mxPoint x="-13" y="6" as="offset" />
          </mxGeometry>
        </mxCell>
        <mxCell id="QG4iqdVKZUwrRVSonUUm-15" value="SI1" style="ellipse;whiteSpace=wrap;html=1;aspect=fixed;fontSize=16;" parent="1" vertex="1">
          <mxGeometry x="270.00000000000006" y="570" width="60" height="60" as="geometry" />
        </mxCell>
        <mxCell id="QG4iqdVKZUwrRVSonUUm-16" value="" style="endArrow=classic;html=1;fontColor=#FF3333;rounded=0;entryX=0.5;entryY=0;entryDx=0;entryDy=0;exitX=0.262;exitY=0.946;exitDx=0;exitDy=0;exitPerimeter=0;" parent="1" source="QG4iqdVKZUwrRVSonUUm-2" target="QG4iqdVKZUwrRVSonUUm-15" edge="1">
          <mxGeometry width="50" height="50" relative="1" as="geometry">
            <mxPoint x="360" y="560" as="sourcePoint" />
            <mxPoint x="-66.20999999999998" y="573.53" as="targetPoint" />
          </mxGeometry>
        </mxCell>
        <mxCell id="QG4iqdVKZUwrRVSonUUm-17" value="? GET /set/:id" style="edgeLabel;html=1;align=center;verticalAlign=middle;resizable=0;points=[];fontSize=12;fontStyle=1" parent="QG4iqdVKZUwrRVSonUUm-16" vertex="1" connectable="0">
          <mxGeometry x="-0.0055" y="-3" relative="1" as="geometry">
            <mxPoint x="11" y="49" as="offset" />
          </mxGeometry>
        </mxCell>
        <mxCell id="QG4iqdVKZUwrRVSonUUm-18" value="" style="endArrow=classic;html=1;fontColor=#FF3333;rounded=0;exitX=0.351;exitY=0.032;exitDx=0;exitDy=0;entryX=0.182;entryY=0.889;entryDx=0;entryDy=0;curved=0;endSize=2;exitPerimeter=0;entryPerimeter=0;" parent="1" source="QG4iqdVKZUwrRVSonUUm-15" target="QG4iqdVKZUwrRVSonUUm-2" edge="1">
          <mxGeometry width="50" height="50" relative="1" as="geometry">
            <mxPoint x="-96.20999999999998" y="543.53" as="sourcePoint" />
            <mxPoint x="40.58999999999975" y="558.1299999999999" as="targetPoint" />
            <Array as="points" />
          </mxGeometry>
        </mxCell>
        <mxCell id="QG4iqdVKZUwrRVSonUUm-19" value="[id invalid] Send(404 error)" style="edgeLabel;html=1;align=center;verticalAlign=middle;resizable=0;points=[];rotation=0;fontSize=10;" parent="QG4iqdVKZUwrRVSonUUm-18" vertex="1" connectable="0">
          <mxGeometry x="-0.2486" y="-25" relative="1" as="geometry">
            <mxPoint x="-111" y="13" as="offset" />
          </mxGeometry>
        </mxCell>
        <mxCell id="QG4iqdVKZUwrRVSonUUm-20" value="SI2" style="ellipse;whiteSpace=wrap;html=1;aspect=fixed;fontSize=16;" parent="1" vertex="1">
          <mxGeometry x="210.00000000000006" y="640" width="60" height="60" as="geometry" />
        </mxCell>
        <mxCell id="QG4iqdVKZUwrRVSonUUm-21" value="" style="endArrow=classic;html=1;fontColor=#FF3333;rounded=0;exitX=0;exitY=1;exitDx=0;exitDy=0;" parent="1" source="QG4iqdVKZUwrRVSonUUm-15" target="QG4iqdVKZUwrRVSonUUm-20" edge="1">
          <mxGeometry width="50" height="50" relative="1" as="geometry">
            <mxPoint x="-138.45" y="755.1899999999999" as="sourcePoint" />
            <mxPoint x="-138.45" y="795.1899999999999" as="targetPoint" />
          </mxGeometry>
        </mxCell>
        <mxCell id="QG4iqdVKZUwrRVSonUUm-22" value="[id valid] Read(set from DB)" style="edgeLabel;html=1;align=center;verticalAlign=middle;resizable=0;points=[];fontSize=10;" parent="QG4iqdVKZUwrRVSonUUm-21" vertex="1" connectable="0">
          <mxGeometry x="0.3147" y="-1" relative="1" as="geometry">
            <mxPoint x="-65" y="-17" as="offset" />
          </mxGeometry>
        </mxCell>
        <mxCell id="QG4iqdVKZUwrRVSonUUm-23" value="" style="endArrow=classic;html=1;fontColor=#FF3333;rounded=0;exitX=1;exitY=0.5;exitDx=0;exitDy=0;curved=0;entryX=0.405;entryY=1.017;entryDx=0;entryDy=0;entryPerimeter=0;endSize=2;" parent="1" source="QG4iqdVKZUwrRVSonUUm-20" target="QG4iqdVKZUwrRVSonUUm-2" edge="1">
          <mxGeometry width="50" height="50" relative="1" as="geometry">
            <mxPoint x="-66.20999999999998" y="673.53" as="sourcePoint" />
            <mxPoint x="140" y="940" as="targetPoint" />
            <Array as="points">
              <mxPoint x="403" y="670" />
            </Array>
          </mxGeometry>
        </mxCell>
        <mxCell id="QG4iqdVKZUwrRVSonUUm-24" value="Send(set)" style="edgeLabel;html=1;align=center;verticalAlign=middle;resizable=0;points=[];fontSize=10;" parent="QG4iqdVKZUwrRVSonUUm-23" vertex="1" connectable="0">
          <mxGeometry x="-0.2486" y="-25" relative="1" as="geometry">
            <mxPoint x="-98" y="-15" as="offset" />
          </mxGeometry>
        </mxCell>
        <mxCell id="QG4iqdVKZUwrRVSonUUm-26" value="OB1" style="ellipse;whiteSpace=wrap;html=1;aspect=fixed;fontSize=16;" parent="1" vertex="1">
          <mxGeometry x="224.3" y="260" width="60" height="60" as="geometry" />
        </mxCell>
        <mxCell id="QG4iqdVKZUwrRVSonUUm-27" value="" style="endArrow=classic;html=1;fontColor=#FF3333;rounded=0;entryX=1;entryY=1;entryDx=0;entryDy=0;exitX=0;exitY=0;exitDx=0;exitDy=0;" parent="1" source="QG4iqdVKZUwrRVSonUUm-2" target="QG4iqdVKZUwrRVSonUUm-26" edge="1">
          <mxGeometry width="50" height="50" relative="1" as="geometry">
            <mxPoint x="329.99773269400094" y="423.11041680287315" as="sourcePoint" />
            <mxPoint x="494.3" y="460" as="targetPoint" />
          </mxGeometry>
        </mxCell>
        <mxCell id="QG4iqdVKZUwrRVSonUUm-28" value="? GET /open-booster/:id" style="edgeLabel;html=1;align=center;verticalAlign=middle;resizable=0;points=[];fontSize=12;fontStyle=1" parent="QG4iqdVKZUwrRVSonUUm-27" vertex="1" connectable="0">
          <mxGeometry x="-0.0055" y="-3" relative="1" as="geometry">
            <mxPoint x="-110" y="-22" as="offset" />
          </mxGeometry>
        </mxCell>
        <mxCell id="QG4iqdVKZUwrRVSonUUm-31" value="OB2" style="ellipse;whiteSpace=wrap;html=1;aspect=fixed;fontSize=16;" parent="1" vertex="1">
          <mxGeometry x="150" y="190" width="60" height="60" as="geometry" />
        </mxCell>
        <mxCell id="QG4iqdVKZUwrRVSonUUm-32" value="SC1" style="ellipse;whiteSpace=wrap;html=1;aspect=fixed;fontSize=16;" parent="1" vertex="1">
          <mxGeometry x="590" y="450" width="60" height="60" as="geometry" />
        </mxCell>
        <mxCell id="QG4iqdVKZUwrRVSonUUm-33" value="" style="endArrow=classic;html=1;fontColor=#FF3333;rounded=0;exitX=1;exitY=0.5;exitDx=0;exitDy=0;" parent="1" source="QG4iqdVKZUwrRVSonUUm-2" target="QG4iqdVKZUwrRVSonUUm-32" edge="1">
          <mxGeometry width="50" height="50" relative="1" as="geometry">
            <mxPoint x="440" y="433" as="sourcePoint" />
            <mxPoint x="542" y="458.43" as="targetPoint" />
          </mxGeometry>
        </mxCell>
        <mxCell id="QG4iqdVKZUwrRVSonUUm-34" value="? GET /set/cards/:id" style="edgeLabel;html=1;align=center;verticalAlign=middle;resizable=0;points=[];fontSize=12;fontStyle=1" parent="QG4iqdVKZUwrRVSonUUm-33" vertex="1" connectable="0">
          <mxGeometry x="-0.0055" y="-3" relative="1" as="geometry">
            <mxPoint x="48" y="-14" as="offset" />
          </mxGeometry>
        </mxCell>
        <mxCell id="QG4iqdVKZUwrRVSonUUm-37" value="SC2" style="ellipse;whiteSpace=wrap;html=1;aspect=fixed;fontSize=16;" parent="1" vertex="1">
          <mxGeometry x="730" y="520" width="60" height="60" as="geometry" />
        </mxCell>
        <mxCell id="QG4iqdVKZUwrRVSonUUm-38" value="" style="endArrow=classic;html=1;fontColor=#FF3333;rounded=0;exitX=0.96;exitY=0.757;exitDx=0;exitDy=0;entryX=-0.002;entryY=0.373;entryDx=0;entryDy=0;exitPerimeter=0;entryPerimeter=0;" parent="1" source="QG4iqdVKZUwrRVSonUUm-32" target="QG4iqdVKZUwrRVSonUUm-37" edge="1">
          <mxGeometry width="50" height="50" relative="1" as="geometry">
            <mxPoint x="650" y="389.43" as="sourcePoint" />
            <mxPoint x="670" y="283.43" as="targetPoint" />
            <Array as="points" />
          </mxGeometry>
        </mxCell>
        <mxCell id="QG4iqdVKZUwrRVSonUUm-39" value="[id valid]&lt;br style=&quot;font-size: 10px;&quot;&gt;Read(set cards from DB)" style="edgeLabel;html=1;align=center;verticalAlign=middle;resizable=0;points=[];fontSize=10;labelBackgroundColor=none;" parent="QG4iqdVKZUwrRVSonUUm-38" vertex="1" connectable="0">
          <mxGeometry x="-0.0055" y="-3" relative="1" as="geometry">
            <mxPoint x="-37" y="9" as="offset" />
          </mxGeometry>
        </mxCell>
        <mxCell id="QG4iqdVKZUwrRVSonUUm-40" value="" style="endArrow=classic;html=1;fontColor=#FF3333;rounded=0;exitX=0.5;exitY=0;exitDx=0;exitDy=0;endSize=2;" parent="1" source="QG4iqdVKZUwrRVSonUUm-37" edge="1">
          <mxGeometry width="50" height="50" relative="1" as="geometry">
            <mxPoint x="650" y="403.43" as="sourcePoint" />
            <mxPoint x="440" y="424" as="targetPoint" />
            <Array as="points">
              <mxPoint x="760" y="424" />
              <mxPoint x="560" y="424" />
            </Array>
          </mxGeometry>
        </mxCell>
        <mxCell id="QG4iqdVKZUwrRVSonUUm-41" value="Send(set cards)" style="edgeLabel;html=1;align=center;verticalAlign=middle;resizable=0;points=[];fontSize=10;" parent="QG4iqdVKZUwrRVSonUUm-40" vertex="1" connectable="0">
          <mxGeometry x="-0.0055" y="-3" relative="1" as="geometry">
            <mxPoint x="71" y="11" as="offset" />
          </mxGeometry>
        </mxCell>
        <mxCell id="cwZx727yNycSAReZtOsQ-1" value="" style="endArrow=classic;html=1;fontColor=#FF3333;rounded=0;exitX=0;exitY=0;exitDx=0;exitDy=0;entryX=1;entryY=1;entryDx=0;entryDy=0;" parent="1" source="QG4iqdVKZUwrRVSonUUm-26" target="QG4iqdVKZUwrRVSonUUm-31" edge="1">
          <mxGeometry width="50" height="50" relative="1" as="geometry">
            <mxPoint x="344.3" y="430" as="sourcePoint" />
            <mxPoint x="394.3" y="380" as="targetPoint" />
          </mxGeometry>
        </mxCell>
        <mxCell id="cwZx727yNycSAReZtOsQ-3" value="[id valid]&lt;br&gt;Read(set cards from DB)" style="edgeLabel;html=1;align=center;verticalAlign=middle;resizable=0;points=[];fontSize=10;labelBackgroundColor=none;" parent="cwZx727yNycSAReZtOsQ-1" connectable="0" vertex="1">
          <mxGeometry x="0.2772" y="-3" relative="1" as="geometry">
            <mxPoint x="-44" y="16" as="offset" />
          </mxGeometry>
        </mxCell>
        <mxCell id="cwZx727yNycSAReZtOsQ-4" value="OB3" style="ellipse;whiteSpace=wrap;html=1;aspect=fixed;fontSize=16;" parent="1" vertex="1">
          <mxGeometry x="70" y="110" width="60" height="60" as="geometry" />
        </mxCell>
        <mxCell id="cwZx727yNycSAReZtOsQ-5" value="" style="endArrow=classic;html=1;fontColor=#FF3333;rounded=0;exitX=0;exitY=0;exitDx=0;exitDy=0;entryX=1;entryY=1;entryDx=0;entryDy=0;" parent="1" source="QG4iqdVKZUwrRVSonUUm-31" target="cwZx727yNycSAReZtOsQ-4" edge="1">
          <mxGeometry width="50" height="50" relative="1" as="geometry">
            <mxPoint x="264.3" y="270" as="sourcePoint" />
            <mxPoint x="264.3" y="220" as="targetPoint" />
          </mxGeometry>
        </mxCell>
        <mxCell id="cwZx727yNycSAReZtOsQ-6" value="Choose 5 random cards" style="edgeLabel;html=1;align=center;verticalAlign=middle;resizable=0;points=[];fontSize=10;" parent="cwZx727yNycSAReZtOsQ-5" connectable="0" vertex="1">
          <mxGeometry x="0.2772" y="-3" relative="1" as="geometry">
            <mxPoint x="54" y="-3" as="offset" />
          </mxGeometry>
        </mxCell>
        <mxCell id="cwZx727yNycSAReZtOsQ-7" value="" style="endArrow=classic;html=1;fontColor=#FF3333;rounded=0;exitX=0.5;exitY=1;exitDx=0;exitDy=0;entryX=-0.02;entryY=0.247;entryDx=0;entryDy=0;entryPerimeter=0;endSize=2;" parent="1" source="cwZx727yNycSAReZtOsQ-4" target="QG4iqdVKZUwrRVSonUUm-2" edge="1">
          <mxGeometry width="50" height="50" relative="1" as="geometry">
            <mxPoint x="234.3" y="190" as="sourcePoint" />
            <mxPoint x="315.5199999999998" y="437.70000000000005" as="targetPoint" />
            <Array as="points">
              <mxPoint x="100" y="360" />
              <mxPoint x="300" y="360" />
            </Array>
          </mxGeometry>
        </mxCell>
        <mxCell id="cwZx727yNycSAReZtOsQ-8" value="Send&lt;br&gt;(Booster cards)" style="edgeLabel;html=1;align=center;verticalAlign=middle;resizable=0;points=[];fontSize=10;" parent="cwZx727yNycSAReZtOsQ-7" connectable="0" vertex="1">
          <mxGeometry x="0.2772" y="-3" relative="1" as="geometry">
            <mxPoint x="-160" y="-173" as="offset" />
          </mxGeometry>
        </mxCell>
        <mxCell id="iSfza9JYDVgPvxPYTgou-2" value="SA1" style="ellipse;whiteSpace=wrap;html=1;aspect=fixed;fontSize=16;" vertex="1" parent="1">
          <mxGeometry x="490.00000000000006" y="560" width="60" height="60" as="geometry" />
        </mxCell>
        <mxCell id="iSfza9JYDVgPvxPYTgou-3" value="" style="endArrow=classic;html=1;rounded=0;exitX=1;exitY=1;exitDx=0;exitDy=0;" edge="1" parent="1" source="QG4iqdVKZUwrRVSonUUm-2" target="iSfza9JYDVgPvxPYTgou-2">
          <mxGeometry width="50" height="50" relative="1" as="geometry">
            <mxPoint x="400" y="500" as="sourcePoint" />
            <mxPoint x="450" y="450" as="targetPoint" />
          </mxGeometry>
        </mxCell>
        <mxCell id="iSfza9JYDVgPvxPYTgou-4" value="? GET /sets" style="edgeLabel;html=1;align=center;verticalAlign=middle;resizable=0;points=[];fontStyle=1" vertex="1" connectable="0" parent="iSfza9JYDVgPvxPYTgou-3">
          <mxGeometry x="0.0677" relative="1" as="geometry">
            <mxPoint x="53" y="26" as="offset" />
          </mxGeometry>
        </mxCell>
        <mxCell id="iSfza9JYDVgPvxPYTgou-5" value="" style="endArrow=classic;html=1;rounded=0;exitX=0;exitY=0.5;exitDx=0;exitDy=0;entryX=0.731;entryY=0.99;entryDx=0;entryDy=0;entryPerimeter=0;endSize=2;" edge="1" parent="1" source="iSfza9JYDVgPvxPYTgou-6" target="QG4iqdVKZUwrRVSonUUm-2">
          <mxGeometry width="50" height="50" relative="1" as="geometry">
            <mxPoint x="500" y="490" as="sourcePoint" />
            <mxPoint x="550" y="440" as="targetPoint" />
            <Array as="points">
              <mxPoint x="480" y="660" />
              <mxPoint x="480" y="560" />
            </Array>
          </mxGeometry>
        </mxCell>
        <mxCell id="iSfza9JYDVgPvxPYTgou-10" value="Send(sets)" style="edgeLabel;html=1;align=center;verticalAlign=middle;resizable=0;points=[];fontSize=10;" vertex="1" connectable="0" parent="iSfza9JYDVgPvxPYTgou-5">
          <mxGeometry x="-0.6566" y="-1" relative="1" as="geometry">
            <mxPoint x="9" y="11" as="offset" />
          </mxGeometry>
        </mxCell>
        <mxCell id="iSfza9JYDVgPvxPYTgou-6" value="SA2" style="ellipse;whiteSpace=wrap;html=1;aspect=fixed;fontSize=16;" vertex="1" parent="1">
          <mxGeometry x="550" y="630" width="60" height="60" as="geometry" />
        </mxCell>
        <mxCell id="iSfza9JYDVgPvxPYTgou-7" value="" style="endArrow=classic;html=1;rounded=0;exitX=1;exitY=1;exitDx=0;exitDy=0;entryX=0;entryY=0;entryDx=0;entryDy=0;" edge="1" parent="1" source="iSfza9JYDVgPvxPYTgou-2" target="iSfza9JYDVgPvxPYTgou-6">
          <mxGeometry width="50" height="50" relative="1" as="geometry">
            <mxPoint x="380" y="610" as="sourcePoint" />
            <mxPoint x="430" y="560" as="targetPoint" />
          </mxGeometry>
        </mxCell>
        <mxCell id="iSfza9JYDVgPvxPYTgou-8" value="Read(sets from DB)" style="edgeLabel;html=1;align=center;verticalAlign=middle;resizable=0;points=[];fontSize=10;" vertex="1" connectable="0" parent="iSfza9JYDVgPvxPYTgou-7">
          <mxGeometry x="-0.4194" y="-1" relative="1" as="geometry">
            <mxPoint x="52" y="-2" as="offset" />
          </mxGeometry>
        </mxCell>
        <mxCell id="iSfza9JYDVgPvxPYTgou-11" value="" style="endArrow=classic;html=1;rounded=0;endSize=2;exitX=0.984;exitY=0.721;exitDx=0;exitDy=0;exitPerimeter=0;entryX=0.271;entryY=0.034;entryDx=0;entryDy=0;entryPerimeter=0;" edge="1" parent="1" source="QG4iqdVKZUwrRVSonUUm-26" target="QG4iqdVKZUwrRVSonUUm-2">
          <mxGeometry width="50" height="50" relative="1" as="geometry">
            <mxPoint x="290" y="340" as="sourcePoint" />
            <mxPoint x="390" y="390" as="targetPoint" />
          </mxGeometry>
        </mxCell>
        <mxCell id="iSfza9JYDVgPvxPYTgou-12" value="[id invalid] &lt;br&gt;Send(404 error)" style="edgeLabel;html=1;align=center;verticalAlign=middle;resizable=0;points=[];fontSize=10;labelBackgroundColor=none;" vertex="1" connectable="0" parent="iSfza9JYDVgPvxPYTgou-11">
          <mxGeometry x="0.1113" relative="1" as="geometry">
            <mxPoint x="-11" y="-57" as="offset" />
          </mxGeometry>
        </mxCell>
        <mxCell id="iSfza9JYDVgPvxPYTgou-13" value="DP1" style="ellipse;whiteSpace=wrap;html=1;aspect=fixed;fontSize=16;" vertex="1" parent="1">
          <mxGeometry x="414" y="190" width="60" height="60" as="geometry" />
        </mxCell>
        <mxCell id="iSfza9JYDVgPvxPYTgou-36" style="edgeStyle=orthogonalEdgeStyle;rounded=0;orthogonalLoop=1;jettySize=auto;html=1;" edge="1" parent="1" source="iSfza9JYDVgPvxPYTgou-14" target="iSfza9JYDVgPvxPYTgou-34">
          <mxGeometry relative="1" as="geometry" />
        </mxCell>
        <mxCell id="iSfza9JYDVgPvxPYTgou-37" value="[id valid]&lt;br style=&quot;font-size: 10px;&quot;&gt;Read(evolutions from DB)" style="edgeLabel;html=1;align=center;verticalAlign=middle;resizable=0;points=[];fontSize=10;" vertex="1" connectable="0" parent="iSfza9JYDVgPvxPYTgou-36">
          <mxGeometry x="-0.1097" y="-1" relative="1" as="geometry">
            <mxPoint x="57" y="1" as="offset" />
          </mxGeometry>
        </mxCell>
        <mxCell id="iSfza9JYDVgPvxPYTgou-14" value="CE1" style="ellipse;whiteSpace=wrap;html=1;aspect=fixed;fontSize=16;" vertex="1" parent="1">
          <mxGeometry x="590" y="280" width="60" height="60" as="geometry" />
        </mxCell>
        <mxCell id="iSfza9JYDVgPvxPYTgou-15" value="" style="endArrow=classic;html=1;rounded=0;entryX=0.394;entryY=1.022;entryDx=0;entryDy=0;exitX=0.5;exitY=0;exitDx=0;exitDy=0;entryPerimeter=0;" edge="1" parent="1" source="QG4iqdVKZUwrRVSonUUm-2" target="iSfza9JYDVgPvxPYTgou-13">
          <mxGeometry width="50" height="50" relative="1" as="geometry">
            <mxPoint x="430" y="440" as="sourcePoint" />
            <mxPoint x="480" y="390" as="targetPoint" />
          </mxGeometry>
        </mxCell>
        <mxCell id="iSfza9JYDVgPvxPYTgou-16" value="? POST &lt;br&gt;/deck-price {deck}" style="edgeLabel;html=1;align=center;verticalAlign=middle;resizable=0;points=[];fontStyle=1;labelBackgroundColor=none;" vertex="1" connectable="0" parent="iSfza9JYDVgPvxPYTgou-15">
          <mxGeometry x="-0.1118" y="1" relative="1" as="geometry">
            <mxPoint x="58" y="-43" as="offset" />
          </mxGeometry>
        </mxCell>
        <mxCell id="iSfza9JYDVgPvxPYTgou-24" style="edgeStyle=orthogonalEdgeStyle;rounded=0;orthogonalLoop=1;jettySize=auto;html=1;entryX=0.5;entryY=1;entryDx=0;entryDy=0;" edge="1" parent="1" source="iSfza9JYDVgPvxPYTgou-17" target="iSfza9JYDVgPvxPYTgou-23">
          <mxGeometry relative="1" as="geometry" />
        </mxCell>
        <mxCell id="iSfza9JYDVgPvxPYTgou-25" value="Add prices" style="edgeLabel;html=1;align=center;verticalAlign=middle;resizable=0;points=[];fontSize=10;" vertex="1" connectable="0" parent="iSfza9JYDVgPvxPYTgou-24">
          <mxGeometry x="0.1222" relative="1" as="geometry">
            <mxPoint x="-28" y="2" as="offset" />
          </mxGeometry>
        </mxCell>
        <mxCell id="iSfza9JYDVgPvxPYTgou-17" value="DP2" style="ellipse;whiteSpace=wrap;html=1;aspect=fixed;fontSize=16;" vertex="1" parent="1">
          <mxGeometry x="414" y="90" width="60" height="60" as="geometry" />
        </mxCell>
        <mxCell id="iSfza9JYDVgPvxPYTgou-19" value="" style="endArrow=classic;html=1;rounded=0;endSize=2;exitX=0.256;exitY=0.989;exitDx=0;exitDy=0;exitPerimeter=0;" edge="1" parent="1" source="iSfza9JYDVgPvxPYTgou-13">
          <mxGeometry width="50" height="50" relative="1" as="geometry">
            <mxPoint x="293" y="313" as="sourcePoint" />
            <mxPoint x="400" y="400" as="targetPoint" />
          </mxGeometry>
        </mxCell>
        <mxCell id="iSfza9JYDVgPvxPYTgou-20" value="[id invalid] &lt;br&gt;Send(404 error)" style="edgeLabel;html=1;align=center;verticalAlign=middle;resizable=0;points=[];fontSize=10;labelBackgroundColor=none;" vertex="1" connectable="0" parent="iSfza9JYDVgPvxPYTgou-19">
          <mxGeometry x="0.1113" relative="1" as="geometry">
            <mxPoint x="-27" y="-73" as="offset" />
          </mxGeometry>
        </mxCell>
        <mxCell id="iSfza9JYDVgPvxPYTgou-21" value="" style="endArrow=classic;html=1;rounded=0;exitX=0.5;exitY=0;exitDx=0;exitDy=0;entryX=0.5;entryY=1;entryDx=0;entryDy=0;" edge="1" parent="1" source="iSfza9JYDVgPvxPYTgou-13" target="iSfza9JYDVgPvxPYTgou-17">
          <mxGeometry width="50" height="50" relative="1" as="geometry">
            <mxPoint x="370" y="210" as="sourcePoint" />
            <mxPoint x="420" y="160" as="targetPoint" />
          </mxGeometry>
        </mxCell>
        <mxCell id="iSfza9JYDVgPvxPYTgou-22" value="[id valid] &lt;br&gt;Read(Cards from DB)" style="edgeLabel;html=1;align=center;verticalAlign=middle;resizable=0;points=[];fontSize=10;labelBackgroundColor=none;" vertex="1" connectable="0" parent="iSfza9JYDVgPvxPYTgou-21">
          <mxGeometry x="-0.2571" y="-1" relative="1" as="geometry">
            <mxPoint x="-53" y="-1" as="offset" />
          </mxGeometry>
        </mxCell>
        <mxCell id="iSfza9JYDVgPvxPYTgou-23" value="DP3" style="ellipse;whiteSpace=wrap;html=1;aspect=fixed;fontSize=16;" vertex="1" parent="1">
          <mxGeometry x="414" width="60" height="60" as="geometry" />
        </mxCell>
        <mxCell id="iSfza9JYDVgPvxPYTgou-26" value="" style="endArrow=classic;html=1;rounded=0;endSize=2;exitX=1;exitY=0.5;exitDx=0;exitDy=0;entryX=0.667;entryY=-0.002;entryDx=0;entryDy=0;entryPerimeter=0;" edge="1" parent="1" source="iSfza9JYDVgPvxPYTgou-23" target="QG4iqdVKZUwrRVSonUUm-2">
          <mxGeometry width="50" height="50" relative="1" as="geometry">
            <mxPoint x="420" y="60" as="sourcePoint" />
            <mxPoint x="470" y="10" as="targetPoint" />
            <Array as="points">
              <mxPoint x="530" y="30" />
              <mxPoint x="530" y="320" />
              <mxPoint x="440" y="320" />
            </Array>
          </mxGeometry>
        </mxCell>
        <mxCell id="iSfza9JYDVgPvxPYTgou-27" value="Send(total price)" style="edgeLabel;html=1;align=center;verticalAlign=middle;resizable=0;points=[];fontSize=10;" vertex="1" connectable="0" parent="iSfza9JYDVgPvxPYTgou-26">
          <mxGeometry x="-0.9254" relative="1" as="geometry">
            <mxPoint x="19" y="-9" as="offset" />
          </mxGeometry>
        </mxCell>
        <mxCell id="iSfza9JYDVgPvxPYTgou-28" value="" style="endArrow=classic;html=1;rounded=0;endSize=2;exitX=-0.002;exitY=0.605;exitDx=0;exitDy=0;exitPerimeter=0;entryX=0.994;entryY=0.658;entryDx=0;entryDy=0;entryPerimeter=0;" edge="1" parent="1" source="QG4iqdVKZUwrRVSonUUm-32" target="QG4iqdVKZUwrRVSonUUm-2">
          <mxGeometry width="50" height="50" relative="1" as="geometry">
            <mxPoint x="540" y="460" as="sourcePoint" />
            <mxPoint x="590" y="410" as="targetPoint" />
          </mxGeometry>
        </mxCell>
        <mxCell id="iSfza9JYDVgPvxPYTgou-29" value="[id invalid] &lt;br&gt;Send(404 error)" style="edgeLabel;html=1;align=center;verticalAlign=middle;resizable=0;points=[];fontSize=10;labelBackgroundColor=none;" vertex="1" connectable="0" parent="iSfza9JYDVgPvxPYTgou-28">
          <mxGeometry x="0.4515" relative="1" as="geometry">
            <mxPoint x="69" y="40" as="offset" />
          </mxGeometry>
        </mxCell>
        <mxCell id="iSfza9JYDVgPvxPYTgou-30" value="" style="endArrow=classic;html=1;rounded=0;exitX=1;exitY=0;exitDx=0;exitDy=0;" edge="1" parent="1" source="QG4iqdVKZUwrRVSonUUm-2" target="iSfza9JYDVgPvxPYTgou-14">
          <mxGeometry width="50" height="50" relative="1" as="geometry">
            <mxPoint x="419" y="410" as="sourcePoint" />
            <mxPoint x="448" y="261" as="targetPoint" />
          </mxGeometry>
        </mxCell>
        <mxCell id="iSfza9JYDVgPvxPYTgou-31" value="? GET /card/evolution/:id" style="edgeLabel;html=1;align=center;verticalAlign=middle;resizable=0;points=[];fontStyle=1;labelBackgroundColor=none;" vertex="1" connectable="0" parent="iSfza9JYDVgPvxPYTgou-30">
          <mxGeometry x="-0.1118" y="1" relative="1" as="geometry">
            <mxPoint x="128" y="-19" as="offset" />
          </mxGeometry>
        </mxCell>
        <mxCell id="iSfza9JYDVgPvxPYTgou-32" value="" style="endArrow=classic;html=1;rounded=0;endSize=2;exitX=0.006;exitY=0.586;exitDx=0;exitDy=0;exitPerimeter=0;entryX=0.841;entryY=0.065;entryDx=0;entryDy=0;entryPerimeter=0;" edge="1" parent="1" source="iSfza9JYDVgPvxPYTgou-14" target="QG4iqdVKZUwrRVSonUUm-2">
          <mxGeometry width="50" height="50" relative="1" as="geometry">
            <mxPoint x="439" y="259" as="sourcePoint" />
            <mxPoint x="410" y="410" as="targetPoint" />
          </mxGeometry>
        </mxCell>
        <mxCell id="iSfza9JYDVgPvxPYTgou-33" value="[id invalid] &lt;br&gt;Send(404 error)" style="edgeLabel;html=1;align=center;verticalAlign=middle;resizable=0;points=[];fontSize=10;labelBackgroundColor=none;" vertex="1" connectable="0" parent="iSfza9JYDVgPvxPYTgou-32">
          <mxGeometry x="0.1113" relative="1" as="geometry">
            <mxPoint x="-31" y="-16" as="offset" />
          </mxGeometry>
        </mxCell>
        <mxCell id="iSfza9JYDVgPvxPYTgou-42" style="edgeStyle=orthogonalEdgeStyle;rounded=0;orthogonalLoop=1;jettySize=auto;html=1;entryX=0.5;entryY=1;entryDx=0;entryDy=0;" edge="1" parent="1" source="iSfza9JYDVgPvxPYTgou-34" target="iSfza9JYDVgPvxPYTgou-35">
          <mxGeometry relative="1" as="geometry" />
        </mxCell>
        <mxCell id="iSfza9JYDVgPvxPYTgou-43" value="[has evolution]&lt;br style=&quot;font-size: 10px;&quot;&gt;Read(cards from DB)" style="edgeLabel;html=1;align=center;verticalAlign=middle;resizable=0;points=[];fontSize=10;" vertex="1" connectable="0" parent="iSfza9JYDVgPvxPYTgou-42">
          <mxGeometry x="-0.0933" y="-2" relative="1" as="geometry">
            <mxPoint x="48" y="-8" as="offset" />
          </mxGeometry>
        </mxCell>
        <mxCell id="iSfza9JYDVgPvxPYTgou-34" value="CE2" style="ellipse;whiteSpace=wrap;html=1;aspect=fixed;fontSize=16;" vertex="1" parent="1">
          <mxGeometry x="590" y="180" width="60" height="60" as="geometry" />
        </mxCell>
        <mxCell id="iSfza9JYDVgPvxPYTgou-35" value="CE3" style="ellipse;whiteSpace=wrap;html=1;aspect=fixed;fontSize=16;" vertex="1" parent="1">
          <mxGeometry x="590" y="50" width="60" height="60" as="geometry" />
        </mxCell>
        <mxCell id="iSfza9JYDVgPvxPYTgou-39" value="" style="endArrow=classic;html=1;rounded=0;endSize=2;exitX=1;exitY=0.5;exitDx=0;exitDy=0;entryX=0.938;entryY=0.223;entryDx=0;entryDy=0;entryPerimeter=0;" edge="1" parent="1" source="iSfza9JYDVgPvxPYTgou-34" target="QG4iqdVKZUwrRVSonUUm-2">
          <mxGeometry width="50" height="50" relative="1" as="geometry">
            <mxPoint x="630" y="300" as="sourcePoint" />
            <mxPoint x="680" y="250" as="targetPoint" />
            <Array as="points">
              <mxPoint x="750" y="210" />
              <mxPoint x="750" y="360" />
              <mxPoint x="560" y="360" />
            </Array>
          </mxGeometry>
        </mxCell>
        <mxCell id="iSfza9JYDVgPvxPYTgou-40" value="[no evolution] &lt;br&gt;Send(404 error)" style="edgeLabel;html=1;align=center;verticalAlign=middle;resizable=0;points=[];fontSize=10;" vertex="1" connectable="0" parent="iSfza9JYDVgPvxPYTgou-39">
          <mxGeometry x="-0.4851" relative="1" as="geometry">
            <mxPoint x="-60" y="-62" as="offset" />
          </mxGeometry>
        </mxCell>
        <mxCell id="iSfza9JYDVgPvxPYTgou-44" value="" style="endArrow=classic;html=1;rounded=0;endSize=2;exitX=1;exitY=0.5;exitDx=0;exitDy=0;entryX=1.017;entryY=0.333;entryDx=0;entryDy=0;entryPerimeter=0;" edge="1" parent="1" source="iSfza9JYDVgPvxPYTgou-35" target="QG4iqdVKZUwrRVSonUUm-2">
          <mxGeometry width="50" height="50" relative="1" as="geometry">
            <mxPoint x="780" y="180" as="sourcePoint" />
            <mxPoint x="460" y="410" as="targetPoint" />
            <Array as="points">
              <mxPoint x="760" y="80" />
              <mxPoint x="760" y="380" />
              <mxPoint x="540" y="380" />
            </Array>
          </mxGeometry>
        </mxCell>
        <mxCell id="iSfza9JYDVgPvxPYTgou-45" value="Send(Evolutions)" style="edgeLabel;html=1;align=center;verticalAlign=middle;resizable=0;points=[];fontSize=10;" vertex="1" connectable="0" parent="iSfza9JYDVgPvxPYTgou-44">
          <mxGeometry x="-0.6964" y="-3" relative="1" as="geometry">
            <mxPoint x="-65" y="-11" as="offset" />
          </mxGeometry>
        </mxCell>
        <mxCell id="iSfza9JYDVgPvxPYTgou-46" value="" style="endArrow=classic;html=1;rounded=0;entryX=0.599;entryY=1.019;entryDx=0;entryDy=0;entryPerimeter=0;strokeWidth=2;" edge="1" parent="1" target="QG4iqdVKZUwrRVSonUUm-2">
          <mxGeometry width="50" height="50" relative="1" as="geometry">
            <mxPoint x="430" y="520" as="sourcePoint" />
            <mxPoint x="450" y="390" as="targetPoint" />
          </mxGeometry>
        </mxCell>
      </root>
    </mxGraphModel>
  </diagram>
</mxfile>
